<?xml version="1.0" encoding="utf-8"?>
<!-- Generator: Adobe Illustrator 24.1.2, SVG Export Plug-In . SVG Version: 6.00 Build 0)  -->
<svg version="1.1" id="Capa_1" xmlns="http://www.w3.org/2000/svg" xmlns:xlink="http://www.w3.org/1999/xlink" x="0px"
     y="0px"
     viewBox="0 0 425.2 425.2" style="enable-background:new 0 0 425.2 425.2;" xml:space="preserve">
<style type="text/css">
	.st0{fill:#CF5067;}
	.st1{opacity:0.5;fill:#CF5067;}
	.st2{fill:#D1677E;}
	.st3{opacity:0.2;fill:#FFFFFF;}
	.st4{fill:#D5977B;}
	.st5{opacity:0.5;fill:#FFFFFF;}
	.st6{fill:#D9A1AD;}
	.st7{fill:#F593A6;}
	.st8{opacity:0.5;}
	.st9{fill:#F3798C;}
	.st10{fill:#FBC4AB;}
	.st11{fill:#140003;}
	.st12{opacity:0.5;fill:#F3798C;}
	.st13{fill:#FCDEE1;}
	.st14{fill:#FCDADB;}
	.st15{opacity:0.5;fill:#FCDADB;}
	.st16{fill:#F7A8B6;}
	.st17{opacity:0.5;fill:#F7A8B6;}
	.st18{fill:#FDD7C5;}
	.st19{fill:#280918;}
	.st20{fill:#FAC6D0;}
	.st21{fill:#FEEEEF;}
</style>
    <g>
	<path class="st0" d="M288.3,425.2c0-2.1-0.3-4-1-5.4c-5.5-11.5-38.9-0.2-38.9-0.2s0.3,2.1,0.9,5.6H288.3z"/>
        <path class="st1" d="M288.3,425.2c0-2.1-0.3-4-1-5.4c-5.5-11.5-38.9-0.2-38.9-0.2s0.3,2.1,0.9,5.6H288.3z"/>
        <g>
		<path class="st0" d="M175.2,425.2h67.5L164.6,362l-7.8-10.7c-8,3.5-16.8,5-25.8,3.6c-10.5-1.6-16.2-14.6-13.6-23.9
			c0-0.2,0.1-0.3,0.2-0.5c0.4-4,1.7-7.9,3.8-11.5c0.8-2.5,1.8-5.1,2.9-8l-28.5,15.4c0,0-4.5,12.1-6.4,14.2
			C89.4,340.5,74.3,404.3,175.2,425.2z"/>
            <g>
			<path class="st0" d="M147,202c2.6-16.3,8.5-45.6-16-49.4c0.6-7.5,0.9-15-1.2-22.5c-1.5-5.4-3.7-10.3-6.8-14.7
				c0.4,0.1,0.9,0.2,1.3,0.3c0,0,0.4,0.1,1,0.3c1.9,0.5,3.4,1,4.4,1.4c0.8,0.3,1.7,0.7,2.7,1.2c11.6,5.2,32,19,36.4,52.3
				c0,0,4.5,23.8-6.6,53.2c-11.1,29.4-31.8,69.1-31.8,69.1s-5.9,16.4-6.1,17.8c-0.1,1.4-26.1,37.6-32,32.2c0,0-2.8-1.9-2.8-2.6
				c0-0.8,4.5-25.3,18.7-54C122.3,257.8,144.3,218.6,147,202z"/>
                <path class="st1" d="M131,152.6c0.6-7.5,0.9-15-1.2-22.5c-0.4-1.5-0.9-3-1.5-4.4c19.3,12,29.4,44.5,21,57.7l0,0
				C150.2,169.4,147.6,155.2,131,152.6z"/>
                <path class="st0" d="M202.8,401.8c0,0,52.2,15.7,97.8,23.4h62.2c1.8-1.1,3.1-2.5,3.8-4.1c12.1-26.4,9.1-27.5,5.7-32.1l-2.7-4.4
				c-0.9-0.8-1.7-1.7-2.7-2.5c-0.5-0.4-0.8-0.7-1-0.9c-0.1-0.1-0.2-0.1-0.3-0.2c-0.9-0.6-1.8-1.2-2.7-1.8c-1.8-1.1-3.7-2.2-5.6-3.1
				c0.2,0.2-4.6-1.7-5.5-2c-2.5-0.7-5.1-1.4-7.7-1.9c-0.6-0.1-4-0.6-3.1-0.5c-0.5-0.1-0.9-0.1-1.4-0.2c-5.1-0.4-10.2-0.6-15.3-0.6
				c-10.6,0-19.5-8.8-19.5-19.5c0-5.9,2.8-11.3,7.1-14.9c-2.7-2.2-5.4-4.5-8.1-6.8c-0.7-0.6-1.2-0.9-1.4-1.2
				c-0.2-0.2-0.5-0.4-0.8-0.6c-1.6-1.2-3.2-2.3-4.8-3.4c-6-4-12.2-7.8-18.7-11c-1.4-0.7-2.9-1.4-4.3-2.1c-0.4-0.1-3.5-1.4-3.5-1.5
				c-3.5-1.3-7.1-2.5-10.8-3.5c-3.6-1-7.2-1.8-10.8-2.4c-0.3,0-4.5-0.6-3.6-0.5c-0.8-0.1-1.7-0.2-2.5-0.2
				c-7.2-0.5-14.4-0.6-21.6,0.2c-0.2,0.1-3.5,0.5-3.7,0.6c-1.8,0.4-3.7,0.7-5.5,1.2c-3,0.8-5.9,1.7-8.8,2.7
				c-1.8,0.6-3.6,0.9-5.3,0.9c-1.9,2.8-3.8,5.5-5.9,8.1c-1.3,1.7-2.7,3.4-4.1,5.1c0.9-1-1.9,2.9-1.9,3c-9.1,14.8-24,26.9-40.9,29.6
				C143.2,368.4,144,405.5,202.8,401.8z"/>
                <path class="st0" d="M263.6,425.2h133.8c-3.9-4.2-7-7.5-7-7.5s-4.2-20.9-24.5-39.1c-20.4-18.2-137.7,11.6-137.7,11.6
				S238.1,409.3,263.6,425.2z"/>
                <path class="st1" d="M278.3,405.2c13.9,8.3,28.1,14.9,43.8,19.1c1.2,0.3,2.4,0.6,3.6,0.9h71.6c-3.9-4.2-7-7.5-7-7.5
				s-4.2-20.9-24.5-39.1c-14.1-12.7-75-2.2-110.9,5.4C258.4,393.4,270.7,400.6,278.3,405.2z"/>
                <path class="st0"
                      d="M227.1,425.2h70.4c-13.3-14.8-38.1-41.2-50.8-47.9c-17.9-9.4-59.8,15.5-59.8,15.5S193.2,412.5,227.1,425.2z"
                />
                <path class="st2" d="M335.5,385.3c0,0,23.4,6.7,37.5,1.9c0,0-5.6-10.9-17.4-22.1l-10.2-8.4c-6.7-4.8-7.2-9.8-5-14.2
				c-5.1-6.8-15.1-15.3-34.8-23.9c0,0,8.8,3.7,14.2,2.3c0,0-32.8-21.4-63-26.2c0,0,19.5,2.2,32,4.7c0,0-32.7-16-66.7-7.1
				c-24.7,6.5-46.5,9.5-74.6,47c-1.2,3.9-4.3,11.5-4.8,15.8c-0.7,7.4,0.7,11.3,1.9,18.7c3.4,6.2,13.1,22.8,20.3,21.5
				c0,0,27.3,33.9,54,26.7c0,0,2.6-5.2-5.6-16.5c0,0,51.8,25.1,84.3,16.3c0,0,8.6-4.3-8.4-16.9c0,0,51.3,11.9,72.5,0.6
				C361.5,405.6,352.6,390.5,335.5,385.3z"/>
                <path class="st3"
                      d="M144.1,371.3c0.1,0.8,0.2,1.6,0.3,2.4c3.4,6.2,13.1,22.8,20.3,21.5C155.9,390.6,148.9,380.9,144.1,371.3z"/>
                <path class="st3" d="M195.3,411.7c-10.3-1.6-20-6.2-25.8-14.5c-1.6-0.5-3.2-1.1-4.7-1.9c0.3,0.4,27.5,33.8,54,26.7
				c0,0,2.3-4.8-4.6-15C210.7,411.8,202.1,412.7,195.3,411.7z"/>
                <path class="st3" d="M261.2,414.4c-11.6-0.2-24.8-0.2-36.3-3.9c17.2,6.8,49.6,17.5,72.5,11.3c0,0,8.5-4.2-8.2-16.7
				C284.4,413.1,270.8,414.6,261.2,414.4z"/>
                <path class="st3" d="M327.3,402.5c-12.6,2.8-24.7,3.3-36.9-0.2c-0.3,1-0.7,1.9-1.2,2.7c4,0.9,51.9,11.4,72.2,0.5
				c0,0-5.1-8.7-15.1-15.1C343.7,397.8,336.2,400.5,327.3,402.5z"/>
                <path class="st3" d="M357.2,371.2c1.6,4.5,4.4,12-1.1,15.2c-1.7,1-3.5,1.6-5.3,2c7.2,0.9,15.7,1.1,22.1-1.1
				c0,0-5.6-10.9-17.4-22.1l-1.9-1.6C355,366,356.2,368.5,357.2,371.2z"/>
                <path class="st1" d="M130.3,293.1c0,0,20.6-39.6,31.8-69.1c11.1-29.4,6.6-53.2,6.6-53.2c-0.4-3-0.9-5.9-1.6-8.6
				c-4.5,6-3.6,26.3-8,44.7c-5.1,21.2-41.6,84.6-43,101.3c-1.1,12.5-0.7,13.4,1.6,12.3c3.8-5.1,6.5-9.1,6.6-9.6
				C124.4,309.5,130.3,293.1,130.3,293.1z"/>
                <path class="st3" d="M173.3,367.2c-0.8-0.5,39.2,26.4,48.7,19.1c0,0,52.6,5.8,51.4-5.7c0,0,43,7.9,39.6-1c0,0-7.3-16.6-17.7-29.1
				c0,0,22.7,9.6,19-0.2c0,0-7.4,5.8-22.2-2.2c0,0,21.3,26.6,15.3,31.1c-6,4.6-36.4-2.7-38.8-3.9c0,0,5,2.6-0.9,7.2
				c-5.9,4.5-40.4,5.2-46.2,1.9C221.7,384.4,205.4,386.5,173.3,367.2z"/>
		</g>
	</g>
        <g>
		<path class="st4" d="M84.8,110.4c0,0-38.6,7.2-42.9,8c-4.3,0.8-28.3,31.2-25.7,51c0,0,38.6-24,54.7-30.6
			C87.1,132.1,84.8,110.4,84.8,110.4z"/>
            <path d="M16.8,169.5l27.8-17c0,0-11.2-17.9-10.8-19.3c0.3-0.9,3.3-7.9,10.6-9.6c7.3-1.6,27.5,0.8,27.5,0.8l0.2-0.4
			c0,0-20-3.4-28.7-2.7c-5.3,0.4-11.2,8.8-11.2,8.8l-0.6-0.9c0,0-18.3,23.9-15.4,40.2c0,0.1,0,0.3,0.1,0.4
			C16.4,169.7,16.6,169.5,16.8,169.5z"/>
            <path class="st0" d="M132.5,142.3c0,0-1.6,8-1.5,10.3c-47.8,11.8-63.7-13.8-63.7-13.8c-0.3-19.7,18.3-34.2,43.2-35.7
			c17-1,25.4,10.3,29.4,19.5C137.4,129.3,133.4,131.9,132.5,142.3z"/>
            <path class="st1" d="M68.5,130.5c4.1-3.6,6.7-8.3,10.3-12.3c1.4-0.8,2.8-1.6,4.3-2.3c7.1-3,15-4.6,22.7-4.4
			c7,0.2,14.5,1.3,20.4,5.5c2.5,1.8,4.4,3.9,6,6.2c1.4,2.6,2.7,5.2,3.5,7.7c-1.4,2.8-2.7,6-3.2,11.3c0,0-1.6,8-1.5,10.3
			c-47.8,11.8-63.7-13.8-63.7-13.8c0-2.8,0.3-5.5,1-8.1C68.4,130.6,68.4,130.6,68.5,130.5z"/>
            <path class="st5" d="M105.5,108.4c-0.7-3.4-15.7,2.1-26.4,5.9c-1.6,1.8-3.5,2.9-5.5,5.7c-2.1,3-3.4,5.3-5.2,10l-0.3,1.3
			c5.6-4.9,24.3-12.6,28.6-14.6C101.1,114.7,106.6,113.5,105.5,108.4z"/>
            <path d="M102.7,112.6c-1.2,0.7-4.8,0.5-5.5-0.7c-0.7-1.2,1.6-3,2.8-3.7c1.2-0.7,2.8-0.3,3.6,0.9
			C104.4,110.3,104,111.9,102.7,112.6z"/>
            <path class="st6" d="M102.7,112.5c-1.1,0.7-3.9,0.4-4.5-0.8c-0.7-1.1,0.9-2.7,2.1-3.4c1.1-0.7,2.6-0.3,3.3,0.8
			C104.2,110.3,103.8,111.8,102.7,112.5z"/>
            <path d="M101.8,111.1c-0.4,0.2-0.8,0.1-1-0.3c-0.2-0.4-0.1-0.8,0.3-1c0.4-0.2,0.8-0.1,1,0.3C102.3,110.4,102.1,110.8,101.8,111.1z
			"/>
	</g>
</g>
    <g>
	<g>
		<g>
			<g>
				<g>
					<g>
						<g>
							<g>
								<path class="st7" d="M218.6,369.3c2,7.8,3.2,11.6,5.5,19c2.1,5.7-9.1,20.2-9.5,19.1c0,1.6,0.4,12.4,7.8,17.8h13.2
									c4.1-3,8.9-8.2,6.3-14.6c0,0,13.7,18,15.5,3.9c0,0-0.1-5.8-5.8-16.2c0,0,9.9,4.4,9.5-10.6c0,0-5.3-14.2-9-16.9
									c0,0,4.9,3.3,5.4-3.8c0,0,2.5-14.2-2.1-24.1l-2.5-7.1c-2.2-3.9-7.1-9.9-11.3-16.4c-5.9-7.5-6.9-7.3-11.9-13.2
									c0,0,2.2,2.4,2.5,0.2c0,0-13-15.7-18.3-16.1c0,0,2.8-0.2,5,0.4c0,0-13.6-15-15.5-0.4c-1.4,10.6,4.8,18.6,11.6,61.8
									C215.7,356.3,217.5,364.8,218.6,369.3z"/>
							</g>
						</g>
					</g>
				</g>
			</g>
            <g class="st8">
				<g>
					<g>
						<g>
							<g>
								<path class="st9" d="M218.6,369.3c2,7.8,3.2,11.6,5.5,19c2.1,5.7-9.1,20.2-9.5,19.1c0,1.6,0.4,12.4,7.8,17.8h13.2
									c4.1-3,8.9-8.2,6.3-14.6c0,0,13.7,18,15.5,3.9c0,0-0.1-5.8-5.8-16.2c0,0,9.9,4.4,9.5-10.6c0,0-5.3-14.2-9-16.9
									c0,0,4.9,3.3,5.4-3.8c0,0,2.5-14.2-2.1-24.1l-2.5-7.1c-2.2-3.9-7.1-9.9-11.3-16.4c-5.9-7.5-6.9-7.3-11.9-13.2
									c0,0,2.2,2.4,2.5,0.2c0,0-13-15.7-18.3-16.1c0,0,2.8-0.2,5,0.4c0,0-13.6-15-15.5-0.4c-1.4,10.6,4.8,18.6,11.6,61.8
									C215.7,356.3,217.5,364.8,218.6,369.3z"/>
							</g>
						</g>
					</g>
				</g>
			</g>
            <g>
				<g>
					<g>
						<path class="st9" d="M211.4,294.1c-4.6,0.6-9.4,0.6-14.2-0.2c-11.7-1.9-17.8-16.5-14.9-26.8c0.1-0.2,0.1-0.4,0.2-0.6
							c0.5-4.5,2-8.8,4.4-12.8c0.9-2.8,2-5.7,3.3-8.8l-31.8,16.8c0,0-5.2,13.4-7.2,15.7c0,0-11.4,45.8,42.5,76.4
							c7.9-13,11.9-29.2,14.9-43.2c1.2-5.4,2.1-10.8,3-16.3C211.5,294.3,211.4,294.2,211.4,294.1z"/>
                        <g>
							<path class="st9" d="M216.7,123.9c3.1-18.1,10-50.6-17.2-55.1c0.8-8.4,1.1-16.7-1.1-25.1c-1.6-6-4-11.5-7.5-16.4
								c0.5,0.1,1,0.2,1.4,0.3c0,0,0.4,0.1,1.1,0.3c2.1,0.6,3.7,1.2,4.8,1.6c0.9,0.4,1.9,0.8,3,1.4c12.8,5.9,35.4,21.5,39.9,58.6
								c0,0,4.8,26.5-7.9,59.2c-12.7,32.6-36.1,76.5-36.1,76.5s-6.8,18.2-7,19.8c-0.2,1.6-29.5,41.6-35.9,35.5c0,0-3.1-2.1-3.1-3
								c0-0.8,5.3-28.1,21.4-59.9C188.6,185.8,213.6,142.3,216.7,123.9z"/>
                            <path class="st7" d="M210.3,292.8c-0.1,0.5-0.2,1-0.2,1.5c-0.4,3.4-0.3,6.1-0.1,8.7c0.5-2.9,1-5.8,1.5-8.7
								C211.1,293.8,210.7,293.4,210.3,292.8z"/>
						</g>
					</g>
                    <g>
						<path class="st10" d="M148.5,21.3c0,0-43.1,7.7-47.9,8.5c-4.8,0.8-31.8,34.4-29.2,56.4c0,0,43.2-26.3,61.3-33.5
							C150.7,45.5,148.5,21.3,148.5,21.3z"/>
                        <path class="st11" d="M72.2,86.3l31.1-18.7c0,0-12.3-20.1-11.8-21.6c0.3-1,3.8-8.8,11.9-10.5c8.1-1.7,30.6,1.2,30.6,1.2
							l0.2-0.4c0,0-22.2-4-32-3.3c-5.9,0.4-12.5,9.6-12.5,9.6L89,41.6c0,0-20.6,26.4-17.6,44.6c0,0.2,0,0.3,0.1,0.4
							C71.7,86.5,71.9,86.4,72.2,86.3z"/>
                        <path class="st9" d="M201.2,57.3c0,0-1.9,8.9-1.8,11.5c-53.3,12.6-70.8-16-70.8-16c-0.1-21.9,20.8-37.9,48.5-39.3
							c18.9-1,43.1,18.1,50.6,39.5C224.9,60.4,202.3,45.7,201.2,57.3z"/>
                        <path class="st5" d="M171.5,19.3c-0.8-3.8-17.5,2.1-29.5,6.3c-1.8,2-3.9,3.2-6.2,6.3c-2.4,3.3-3.9,5.9-5.9,11l-0.3,1.4
							c6.3-5.4,27.2-13.8,32-16C166.5,26.3,172.7,24.9,171.5,19.3z"/>
					</g>
				</g>
			</g>
            <path class="st9" d="M70.7,425.2h151.1c14-22,21.2-48.9,17.7-73.5c-12.6-87.2-90.6-79.4-90.6-79.4c-80.6,12-101.7,64.5-95.3,111
				C54.8,392.8,60.5,409.1,70.7,425.2z"/>
            <path class="st12" d="M181.9,276.6c-0.6-3.2-0.5-6.5,0.4-9.5c0.1-0.2,0.1-0.4,0.2-0.6c0.5-4.5,2-8.8,4.4-12.8
				c0.9-2.7,2-5.5,3.2-8.5c0.1-0.1,0.1-0.2,0.1-0.3c0.2-1.6,7-19.8,7-19.8s23.4-43.9,36.1-76.5c12.7-32.6,7.9-59.2,7.9-59.2
				c-1.9-15.8-7.2-27.7-13.5-36.6c0,0,0,0,0,0c-7.4-21.4-31.6-40.4-50.6-39.5c-27.7,1.4-48.6,17.4-48.5,39.3c0,0,17.5,28.7,70.8,16
				c0-0.7,0.1-1.9,0.3-3.3c-0.1,1.1-0.2,2.2-0.3,3.3c27.2,4.5,20.3,37.1,17.2,55.1c-3.1,18.5-28.1,61.9-44.2,93.7
				c-12.1,23.8-18,45.1-20.3,54.6c-2.2,0-3.4,0.2-3.4,0.2c-80.6,12-101.7,64.5-95.3,111c1.3,9.5,7,25.8,17.2,41.9h151.1
				c14-22,21.2-48.9,17.7-73.5C232.4,302.9,204.8,283.9,181.9,276.6z"/>
            <path class="st12" d="M70.7,425.2h151.1c14-22,21.2-48.9,17.7-73.5c-1.2-8.7-3.2-16.4-5.6-23.2c-0.2,1.8-0.5,3.6-1,5.3
				c-0.9,3.2-5.1,2.9-6.1,0c-0.1-0.2-0.1-0.4-0.2-0.6c-2.1,19.7-6.9,40.2-23.1,53c-7.4,5.8-12.2,2.9-12.6-5.9
				c-0.5-10.4,0.8-21.9-2.9-31.8c-2.8,7.6-6.3,17.2-13.3,19.2c-4.5,1.3-8.5-2-9.8-6.3c-2.1-6.8-2.1-13.8-5.7-19.5
				c-0.5,4.6-1.3,9.2-3.1,13.6c-1.1,2.8-3.4,7.6-6.4,8.9c-9.2,4-10.1-10.2-11.3-15.9c-1.3-6.1-2.7-12.5-5.8-17.9
				c-3.5-5.9-8.3-11.1-13.1-16c-4.2-4.3-8.7-8.1-13.2-12c-4.2-3.7-9.3-8.5-15-9.5c-33.2,22.5-42.1,57.8-37.7,90.2
				C54.8,392.8,60.5,409.1,70.7,425.2z"/>
            <g>
				<g>
					<g>
						<g>
							<g>
								<path class="st7" d="M20.4,382.9C10,386.3,1.3,401.4,1.3,401.4c8.4,14.9,38.8,8.7,38.8,8.7c-8.1,7.5-9.4,12.5-9.3,15.1h40.2
									c5.6-2.5,9.4-4.8,9.4-4.8c-1.1,1.7-2.1,3.3-2.9,4.8h23.5c4.6-5.1,7.8-9.6,7.8-9.6c3.5,2.4,13-14.3,16.4-20.6
									c2.6-7.8,4.4-11.8,5.9-19.9c0.9-4.7,1.3-13.4,1.6-17.8c-5.1-44.1-16-50.2-27.4-60.4c-15.8-14.1-37.4-0.9-37.4-0.9
									c7.3-1,18.2-1,18.2-1c-17.4,1.3-40.4,20.2-40.4,20.2c2.5,2.2,8.1-0.6,8.1-0.6c-12.7,6.8-20.3,14.7-24.8,21.4
									c0,5.1-1.5,10.4-6.4,14.7l-7.6,7.8C5.8,369.1,0,380.1,0,380.1C6.2,387.1,20.4,382.9,20.4,382.9z"/>
                                <path class="st12" d="M20.4,382.9C10,386.3,1.3,401.4,1.3,401.4c8.4,14.9,38.8,8.7,38.8,8.7c-8.1,7.5-9.4,12.5-9.3,15.1
									h40.2c5.6-2.5,9.4-4.8,9.4-4.8c-1.1,1.7-2.1,3.3-2.9,4.8h23.5c4.6-5.1,7.8-9.6,7.8-9.6c3.5,2.4,13-14.3,16.4-20.6
									c2.6-7.8,4.4-11.8,5.9-19.9c0.9-4.7,1.3-13.4,1.6-17.8c-5.1-44.1-16-50.2-27.4-60.4c-15.8-14.1-37.4-0.9-37.4-0.9
									c7.3-1,18.2-1,18.2-1c-17.4,1.3-40.4,20.2-40.4,20.2c2.5,2.2,8.1-0.6,8.1-0.6c-12.7,6.8-20.3,14.7-24.8,21.4
									c0,5.1-1.5,10.4-6.4,14.7l-7.6,7.8C5.8,369.1,0,380.1,0,380.1C6.2,387.1,20.4,382.9,20.4,382.9z"/>
                                <path class="st3"
                                      d="M126,392.4c-0.3,0.9-0.5,1.7-0.8,2.6c-3.4,6.3-13,23-16.4,20.6C114.7,411.7,121,402.1,126,392.4z"/>
                                <path class="st3" d="M80.4,425.2c-0.5-1-0.8-2.1-0.9-3.4c-0.7,1.2-1.4,2.3-2,3.4H80.4z"/>
                                <path class="st3"
                                      d="M100.9,425.2c4.6-5,7.7-9.5,7.8-9.6c-1,0.7-2,1.2-3,1.5c-2.2,3.5-4.7,6.2-7.2,8.1H100.9z"/>
                                <path class="st3"
                                      d="M70.9,425.2c0.6-0.3,1.3-0.6,1.8-0.8c-1.1,0.4-2.1,0.6-3.2,0.8H70.9z"/>
                                <path class="st3"
                                      d="M59.4,425.2c-2.4-0.3-4.7-0.8-7-1.3c-5.2-1-12-4.5-12.5-13.7c-8,7.4-9.2,12.4-9.2,15H59.4z"/>
                                <path class="st3" d="M20.3,402.5c6,4.6,12.3,6.7,19.7,4.5c-0.1,1.1-0.1,2.1-0.1,3.1c-2.4,0.5-30.6,5.6-38.6-8.7
									c0,0,5-8.7,12-14.4C12.8,395.2,16.1,399.2,20.3,402.5z"/>
                                <path class="st3" d="M12.6,364.8c-2,4.6-5.5,12.4-3.4,16.6c0.6,1.3,1.4,2.1,2.3,2.8c-4.1,0-8.6-0.8-11.5-4
									c0,0,5.8-11,15.1-21.7l1.4-1.5C15.1,359.4,13.8,362,12.6,364.8z"/>
                                <path class="st3" d="M111.5,384.2c0.6-0.4-27.8,23.5-31,14.4c0,0-29.5-0.5-25.9-12.8c0,0-25,3-20.8-6.2c0,0,8.2-17,17-29.2
									c0,0-14.6,7.4-10.1-2.7c0,0,2.4,7.2,12.4,0.5c0,0-18.3,26-16.3,31.7c2,5.7,20.1,1.7,21.7,0.7c0,0-3.4,2.2-1.4,7.9
									c2,5.7,20.2,10.8,24.1,8C81.3,396.5,89.4,400.9,111.5,384.2z"/>
							</g>
						</g>
					</g>
				</g>
			</g>
		</g>
        <path class="st11" d="M166.8,25.1c-1.5,0.4-5.3-0.9-5.7-2.4c-0.4-1.5,2.6-2.7,4.2-3.1c1.5-0.4,3.1,0.5,3.5,2
			C169.3,23.1,168.4,24.7,166.8,25.1z"/>
        <path class="st13" d="M166.8,25c-1.4,0.4-4.2-0.8-4.6-2.2c-0.4-1.4,1.8-2.6,3.2-3c1.4-0.4,2.9,0.5,3.3,1.9
			C169.1,23.1,168.2,24.6,166.8,25z"/>
        <path class="st11" d="M166.3,23.2c-0.4,0.1-0.9-0.1-1-0.6c-0.1-0.4,0.1-0.9,0.6-1c0.4-0.1,0.9,0.1,1,0.6
			C167,22.6,166.7,23.1,166.3,23.2z"/>
	</g>
</g>
    <g>
	<g>
		<path class="st14" d="M373.4,425.2c0.5-8.7,0.8-14.1,0.8-14.1l-11.2,2.3c0,0-0.2,4.5-0.6,11.7H373.4z"/>
	</g>
        <path class="st15" d="M372.4,425.2h1c0.5-8.7,0.8-14.1,0.8-14.1l-6.1,1.3c0,1.6-0.1,3.3-0.2,4.9c0.7,0,1.4,0,2.1,0c1.3,0,1.3,2,0,2
		c-0.7,0-1.5,0-2.2,0c-0.1,1.5-0.2,3-0.3,4.5c1.4,0,2.8,0.1,4.2,0.2C372.5,424.1,372.6,424.8,372.4,425.2z"/>
        <path class="st16"
              d="M346.5,363c0,0,3.8,29.5,16.5,50.5h11.9c0,0,21.5-37.3,15.3-50.3C384,350.2,346.5,363,346.5,363z"/>
        <path class="st17"
              d="M346.5,363c0,0,3.8,29.5,16.5,50.5h11.9c0,0,21.5-37.3,15.3-50.3C384,350.2,346.5,363,346.5,363z"/>
        <path class="st18" d="M218.3,58.6c0,0-15.5,41.4-17.3,46c-1.8,4.6,13.5,45.4,34.1,54.5c0,0-0.6-51.1,2.4-70.6
		C240.5,69.1,218.3,58.6,218.3,58.6z"/>
        <path class="st19" d="M235.6,158.5l-0.2-36.7c0,0-23.8,0.4-24.8-0.8c-0.7-0.8-5.7-7.8-3-15.8c2.7-8,16.8-26,16.8-26l-0.3-0.4
		c0,0-14.9,17.3-19.3,26.1c-2.7,5.3,2,15.8,2,15.8h-1.2c0,0,12.4,31.6,29.8,38.2c0.1,0.1,0.3,0.1,0.4,0.2
		C235.5,159,235.5,158.8,235.6,158.5z"/>
        <path class="st14" d="M425.2,384.2c-15.6-3.8-44.1-6.8-44.1-6.8s20,10.8,44.1,24.7V384.2z"/>
        <path class="st15" d="M425.2,384.2c-15.6-3.8-44.1-6.8-44.1-6.8s7.5,4,18.8,10.4c6.7,2.7,13.5,5.3,20.3,7.8c0,0,0.1,0,0.1-0.1
		c1.6-0.4,3.3-0.8,4.9-1.2V384.2z"/>
        <path class="st16" d="M317.6,75.8c-5-37.4-27.9-52.9-40.9-58.8c-1.1-0.6-2.1-1-3-1.4c-1.1-0.4-2.8-1-4.9-1.6
		c-0.7-0.2-1.2-0.3-1.2-0.3l0,0c-10.9-2.7-30.9-4.1-41.4,15.9c-13.1,24.8-9.9,51.3,9.2,62.4c0,0,19.1-5.1,38.2-36
		c0.2-0.3,0.4-0.6,0.6-1c28.8,3.7,21.9,37.2,19,55.7c-3,18.7-27.8,62.9-43.7,95.1c-15.9,32.3-21,59.9-21,60.7c0,0.9,3.2,3,3.2,3
		c6.6,6.2,35.8-34.6,36-36.2c0.2-1.6,6.8-20.1,6.8-20.1s23.2-44.6,35.7-77.7C322.7,102.6,317.6,75.8,317.6,75.8z"/>
        <path class="st17" d="M259.3,20.2c-29.7-4-30.8,50.9-30.9,51.9c-0.8,5.8-0.6,10.6,0.3,14.7c2,2,4.2,3.7,6.7,5.2
		c0,0,19.1-5.1,38.2-36c0.2-0.3,0.4-0.6,0.6-1c19.6,2.5,22.6,18.8,21.7,34.8c0,0,0,0,0,0C307,72.4,289,24.3,259.3,20.2z"/>
        <path class="st16" d="M425.2,226c-6.7-5.6-14.1-11-21.8-15.1c0,0,11.5,5.5,21.8,11v-2.2c-10-7.8-29.8-20.6-54.1-22.4
		c-35.3-2.5-63.3-9.8-138.9,65.4l-3.8,4c0,0-14,81.3,66.7,76.2c0,0,75.5,22.7,130.1,29.2V226z"/>
        <path class="st16" d="M425.2,311.3c-45.4,4.2-101.7,18.5-101.7,18.5s26.5,50.7,101.7,61.1V311.3z"/>
        <path class="st17"
              d="M425.2,311.3c-24.1,2.2-51.3,7.3-71.5,11.6c4,10.6,17.8,18.7,26.4,23.8c14.3,8.6,29.1,15.6,45.1,20.3V311.3z"
        />
        <path class="st16"
              d="M277.3,332.8c0,0,16.6,51.8,134.6,48c0,0-47.1-54.8-67.3-65.4C324.4,304.8,277.3,332.8,277.3,332.8z"/>
        <path class="st5" d="M228.4,37.5c-3.7-1.3-8.2,17.8-10.7,30.4c0.8,2.5,2.3,4.8,3.1,7.3c1.3,3.9,2.4,7.2,6.7,10.9l1.2,0.8
		c-1.5-8.3,2-30.8,2.6-36.1C231.9,45.5,233.9,39.5,228.4,37.5z"/>
        <path class="st20" d="M425.2,340.6V226c-6.7-5.6-14.1-11-21.8-15.1c0,0,11.5,5.5,21.8,11v-2.2c-10-7.8-29.8-20.6-54.1-22.4
		c-25.6-1.8-47.4-6.1-86.3,20.4c-2.4,3.3-4.3,6.9-6.1,10.9c-3.1,6.8-6.6,13.6-7.8,21c1.2,7,5.1,26,12.3,27c0,0,15,41.2,42.7,43
		c0,0,4.1-4.1,0-17.5c0,0,41.1,40.8,74.9,43c0,0,9.6-1.3-2.6-18.8C398.2,326.3,410.3,333.9,425.2,340.6z"/>
        <path class="st3"
              d="M271.4,247.2c-0.2,0.8-0.4,1.6-0.5,2.4c1.2,7,5.1,26,12.3,27C276.3,269.3,272.7,257.8,271.4,247.2z"/>
        <path class="st3" d="M306.9,302.3c-9.3-4.8-17-12.4-19.8-22.2c-1.4-1-2.7-2.1-3.9-3.4c0.2,0.4,15.1,41.1,42.7,43
		c0,0,3.8-3.8,0.5-15.8C321.5,307.3,313,305.5,306.9,302.3z"/>
        <path class="st3" d="M368.7,326.3c-11-4-23.5-8.3-33.3-15.6c14.1,12.1,41.5,32.8,65.3,34.4c0,0,9.5-1.3-2.4-18.5
		C391.2,332.6,377.7,329.6,368.7,326.3z"/>
        <path class="st3"
              d="M425.2,334.8c-8.9-2-17.2-5.2-24.8-10.5c-0.6,0.8-1.2,1.6-2,2.2c1.8,1.1,13,7.9,26.7,14.1V334.8z"/>
        <path class="st17" d="M274.4,213.4c0,0,23.2-44.6,35.7-77.7c12.5-33.1,7.4-59.9,7.4-59.9c-0.5-3.4-1.1-6.7-1.8-9.7
		c-5.1,6.8-4.1,29.6-9,50.3c-5.7,23.9-46.8,95.2-48.4,114c-1.2,14.1-0.8,15.1,1.8,13.8c4.3-5.7,7.3-10.2,7.4-10.7
		C267.8,231.9,274.4,213.4,274.4,213.4z"/>
        <path class="st19" d="M230.9,42.7c0,1.6-2.3,4.9-3.9,4.9c-1.6,0-1.9-3.3-1.9-4.9c0-1.6,1.3-2.9,2.9-2.9
		C229.6,39.8,230.9,41.1,230.9,42.7z"/>
        <path class="st21" d="M230.7,42.7c0,1.5-1.9,3.9-3.4,3.9c-1.5,0-2-2.4-2-3.9c0-1.5,1.2-2.7,2.7-2.7C229.5,40,230.7,41.2,230.7,42.7
		z"/>
        <path class="st19" d="M228.8,42.7c0,0.5-0.4,0.8-0.8,0.8c-0.5,0-0.8-0.4-0.8-0.8c0-0.5,0.4-0.8,0.8-0.8
		C228.4,41.9,228.8,42.2,228.8,42.7z"/>
        <path class="st3" d="M425.2,286.6c-0.9-3.3-1.9-6.7-3.1-10c0,0,1.3,1.1,3.1,2.6v-1c-1.7-1.3-3.5-2.9-5.4-4.9c0,0,3.4,9.3,5.4,18.2
		V286.6z"/>
        <path class="st3" d="M425.2,307.5c-0.3,0.2-0.5,0.4-0.9,0.6c-7.2,2.4-33.8-14.5-35.7-16.4c0,0,3.9,4.2-3.2,6.5
		c-7.1,2.4-40.1-8.2-44.6-13.3c0,0-16.1-3.3-40.5-32.1c-0.6-0.7,28.7,37.9,40.1,34.1c0,0,48.1,22.6,50.8,11.3
		c0,0,23.9,13.5,33.8,14.4V307.5z"/>
</g>
</svg>
